<?xml version="1.0" encoding="iso-8859-1"?>
<!-- Generator: Adobe Illustrator 19.0.0, SVG Export Plug-In . SVG Version: 6.00 Build 0)  -->
<svg version="1.1" id="Capa_1" xmlns="http://www.w3.org/2000/svg" xmlns:xlink="http://www.w3.org/1999/xlink" x="0px" y="0px"
	 viewBox="0 0 360 360" style="enable-background:new 0 0 360 360;" xml:space="preserve">
<g id="XMLID_5_">
	<polygon id="XMLID_2277_" style="fill:#565659;" points="77.27,49.164 90.401,49.164 90.401,64.504 101.16,64.504 101.16,25.332 
		90.401,25.332 90.401,39.785 77.27,39.785 77.27,25.332 66.512,25.332 66.512,64.504 77.27,64.504 	"/>
	<path id="XMLID_2278_" style="fill:#565659;" d="M113.959,58.627c1.729,1.858,3.807,3.356,6.234,4.497
		c2.429,1.14,5.131,1.709,8.111,1.709c2.904,0,5.581-0.552,8.027-1.654c2.446-1.103,4.552-2.566,6.316-4.386
		c1.767-1.82,3.146-3.918,4.139-6.29c0.993-2.372,1.489-4.846,1.489-7.421c0-2.5-0.469-4.945-1.407-7.337
		c-0.938-2.392-2.27-4.524-3.999-6.399c-1.73-1.876-3.807-3.386-6.235-4.525c-2.427-1.139-5.13-1.711-8.109-1.711
		c-2.906,0-5.583,0.543-8.027,1.629c-2.447,1.085-4.562,2.538-6.346,4.358c-1.784,1.819-3.172,3.926-4.165,6.316
		c-0.993,2.392-1.49,4.874-1.49,7.449c0,2.538,0.478,5.001,1.435,7.392C110.889,54.646,112.23,56.771,113.959,58.627z
		 M119.946,41.191c0.349-1.23,0.891-2.335,1.627-3.31c0.735-0.974,1.663-1.756,2.787-2.345c1.12-0.589,2.454-0.882,3.999-0.882
		c1.508,0,2.823,0.285,3.945,0.854c1.121,0.57,2.06,1.324,2.813,2.262c0.753,0.938,1.315,2.023,1.683,3.256
		c0.367,1.232,0.552,2.51,0.552,3.835c0,1.288-0.175,2.556-0.524,3.807c-0.35,1.251-0.882,2.364-1.6,3.338
		c-0.718,0.976-1.646,1.765-2.786,2.373c-1.141,0.605-2.482,0.91-4.027,0.91c-1.546,0-2.879-0.295-4-0.885
		c-1.123-0.587-2.051-1.359-2.786-2.315c-0.737-0.956-1.288-2.05-1.656-3.282c-0.367-1.233-0.551-2.512-0.551-3.835
		C119.422,43.686,119.596,42.426,119.946,41.191z"/>
	<path id="XMLID_2281_" style="fill:#565659;" d="M179.863,62.296c1.415-0.955,2.556-2.234,3.421-3.835
		c0.864-1.6,1.296-3.576,1.296-5.931c0-1.839-0.275-3.402-0.827-4.689c-0.552-1.287-1.343-2.381-2.373-3.283
		c-1.029-0.901-2.271-1.683-3.724-2.345c-1.454-0.662-3.081-1.269-4.883-1.82c-1.141-0.367-2.161-0.681-3.061-0.938
		c-0.902-0.256-1.665-0.525-2.29-0.801c-0.626-0.275-1.104-0.579-1.435-0.909c-0.332-0.332-0.496-0.755-0.496-1.27
		c0-0.698,0.284-1.193,0.854-1.489c0.57-0.294,1.333-0.441,2.29-0.441c1.177,0,2.381,0.193,3.614,0.579
		c1.231,0.386,2.345,0.799,3.337,1.241c1.178,0.516,2.317,1.104,3.421,1.766l4.635-8.883c-0.883-0.44-1.876-0.91-2.979-1.407
		c-1.104-0.496-2.29-0.955-3.559-1.379c-1.269-0.424-2.584-0.773-3.945-1.049c-1.36-0.276-2.758-0.413-4.192-0.413
		c-1.95,0-3.799,0.286-5.545,0.854c-1.748,0.571-3.302,1.407-4.662,2.511c-1.361,1.104-2.438,2.483-3.228,4.138
		c-0.792,1.656-1.187,3.569-1.187,5.738c0,1.434,0.193,2.703,0.58,3.808c0.386,1.103,0.983,2.086,1.793,2.951
		c0.809,0.865,1.838,1.637,3.09,2.317c1.249,0.681,2.739,1.314,4.469,1.903c1.177,0.406,2.289,0.755,3.337,1.048
		c1.049,0.296,1.978,0.589,2.787,0.883c0.809,0.295,1.443,0.634,1.903,1.019c0.459,0.388,0.689,0.856,0.689,1.408
		c0,0.516-0.23,0.931-0.689,1.241c-0.46,0.313-1.278,0.47-2.455,0.47c-1.545,0-3.063-0.223-4.552-0.662
		c-1.49-0.441-2.824-0.938-4-1.489c-1.398-0.626-2.741-1.343-4.027-2.152l-4.635,9.434c1.177,0.699,2.455,1.324,3.834,1.876
		c1.38,0.552,2.814,1.03,4.304,1.435c1.49,0.404,2.987,0.717,4.496,0.938C166.778,64.89,168.25,65,169.684,65
		c1.802,0,3.595-0.213,5.38-0.635C176.847,63.942,178.447,63.254,179.863,62.296z"/>
	<polygon id="XMLID_2282_" style="fill:#565659;" points="200.579,64.504 211.338,64.504 211.338,34.709 222.594,34.709 
		222.594,25.332 189.269,25.332 189.269,34.709 200.579,34.709 	"/>
	<polygon id="XMLID_2283_" style="fill:#565659;" points="257.186,55.124 240.028,55.124 240.028,48.944 254.263,48.944 
		254.263,40.227 240.028,40.227 240.028,34.709 256.689,34.709 256.689,25.332 229.269,25.332 229.269,64.504 257.186,64.504 	"/>
	<polygon id="XMLID_2284_" style="fill:#565659;" points="293.488,55.124 275.724,55.124 275.724,25.332 264.965,25.332 
		264.965,64.504 293.488,64.504 	"/>
	<path id="XMLID_2285_" style="fill:#64C37D;" d="M45,266.458C30.544,270.762,20,284.146,20,300c0,1.698,0.127,3.366,0.361,5H15
		c-8.284,0-15,6.716-15,15s6.716,15,15,15h30V266.458z"/>
	<path id="XMLID_2286_" style="fill:#64C37D;" d="M345,305h-5.361c0.234-1.634,0.361-3.302,0.361-5
		c0-15.854-10.544-29.238-25-33.542V335h30c8.284,0,15-6.716,15-15S353.284,305,345,305z"/>
	<path id="XMLID_2287_" style="fill:#DEDDE0;" d="M150,275h30V65h-10.316H45v270h75v-60H150z M135,95h30v30h-30V95z M135,155h30v30
		h-30V155z M135,215h30v30h-30V215z M105,245H75v-30h30V245z M105,185H75v-30h30V185z M105,125H75V95h30V125z"/>
	<path id="XMLID_2295_" style="fill:#CDCDD0;" d="M315,65H180v210h30h30v60h75V65z M225,245h-30v-30h30V245z M225,185h-30v-30h30
		V185z M225,125h-30V95h30V125z M255,95h30v30h-30V95z M255,155h30v30h-30V155z M255,215h30v30h-30V215z"/>
	<rect id="XMLID_2303_" x="150" y="275" style="fill:#818085;" width="30" height="60"/>
	<rect id="XMLID_2304_" x="180" y="275" style="fill:#565659;" width="30" height="60"/>
	<rect id="XMLID_2305_" x="120" y="275" style="fill:#FFFFFF;" width="30" height="60"/>
	<rect id="XMLID_2306_" x="210" y="275" style="fill:#FFFFFF;" width="30" height="60"/>
	<rect id="XMLID_2307_" x="75" y="155" style="fill:#FFFFFF;" width="30" height="30"/>
	<rect id="XMLID_2308_" x="135" y="155" style="fill:#FFFFFF;" width="30" height="30"/>
	<rect id="XMLID_2309_" x="195" y="155" style="fill:#FFFFFF;" width="30" height="30"/>
	<rect id="XMLID_2310_" x="255" y="155" style="fill:#FFFFFF;" width="30" height="30"/>
	<rect id="XMLID_2311_" x="75" y="95" style="fill:#FFFFFF;" width="30" height="30"/>
	<rect id="XMLID_2312_" x="135" y="95" style="fill:#FFFFFF;" width="30" height="30"/>
	<rect id="XMLID_2313_" x="195" y="95" style="fill:#FFFFFF;" width="30" height="30"/>
	<rect id="XMLID_2314_" x="255" y="95" style="fill:#FFFFFF;" width="30" height="30"/>
	<rect id="XMLID_2315_" x="75" y="215" style="fill:#FFFFFF;" width="30" height="30"/>
	<rect id="XMLID_2316_" x="135" y="215" style="fill:#FFFFFF;" width="30" height="30"/>
	<rect id="XMLID_2317_" x="195" y="215" style="fill:#FFFFFF;" width="30" height="30"/>
	<rect id="XMLID_2318_" x="255" y="215" style="fill:#FFFFFF;" width="30" height="30"/>
</g>
<g>
</g>
<g>
</g>
<g>
</g>
<g>
</g>
<g>
</g>
<g>
</g>
<g>
</g>
<g>
</g>
<g>
</g>
<g>
</g>
<g>
</g>
<g>
</g>
<g>
</g>
<g>
</g>
<g>
</g>
</svg>
